<svg id="Capa_1" data-name="Capa 1" xmlns="http://www.w3.org/2000/svg" viewBox="0 0 715.5 765.85"><defs><style>.cls-1{fill:#fff;}.cls-2{isolation:isolate;}</style></defs><g id="Graphic_Element" data-name="Graphic Element"><path class="cls-1" d="M243.77,655.75a0,0,0,0,0,0,.08A0,0,0,1,0,243.77,655.75Z" transform="translate(-224.56 -255.57)"/><path class="cls-1" d="M926,498.52l-18.38.86c8.59,29.37,15.07,65.52,15.07,96.42a322.26,322.26,0,1,1-26.61-128.56H765.27v17.39H921.73l-4.59-11.84a341.47,341.47,0,1,0,22.92,123A352,352,0,0,0,926,498.52Z" transform="translate(-224.56 -255.57)"/><path class="cls-1" d="M760.86,454.38H700.39A4.42,4.42,0,0,0,696,458.8v32a4.42,4.42,0,0,0,4.42,4.42h60.47a4.39,4.39,0,0,0,3.8-2.2,4.58,4.58,0,0,0,.54-1.4,4.47,4.47,0,0,0,.08-.82v-32c0-.12,0-.24,0-.37A4.4,4.4,0,0,0,760.86,454.38Z" transform="translate(-224.56 -255.57)"/><path class="cls-1" d="M839.73,455.15C772.9,343,631.54,285.25,494.9,338.17c-92.5,35.83-172.06,147-176,246.09-8.39,212,205.37,357.68,402,267.12a271.78,271.78,0,0,0,155.53-210c7.22-53.22.21-102.71-17.07-146.3H777.17v3.72a4.35,4.35,0,0,1-4.35,4.35H689.73a4.35,4.35,0,0,1-4.35-4.35V449.46a4.35,4.35,0,0,1,4.35-4.35h83.09a4.35,4.35,0,0,1,4.35,4.35v5.68h62.56Zm-386,320.91A188.2,188.2,0,0,1,383.92,649L405,646.67A168.22,168.22,0,0,0,590.63,795.46L593,816.54A188.14,188.14,0,0,1,453.74,776.06ZM439.18,636.4l25.3-2.79A116.06,116.06,0,0,0,592.56,736.27l2.79,25.3C517.78,770.11,447.72,714,439.18,636.4Zm247.87-20.58A84.64,84.64,0,0,1,644.37,676c-68.25,37.44-146.23-17.89-133.43-94.67a84.64,84.64,0,0,1,42.68-60.15C621.87,483.7,699.85,539,687.05,615.82Z" transform="translate(-224.56 -255.57)"/><path class="cls-1" d="M262.93,779.85l-.69-5.1a19.27,19.27,0,0,0-4.93-8.47l-3.88-3a19,19,0,0,0-9.68-2.62,14.46,14.46,0,0,0-7.39,1.65,14.29,14.29,0,0,0-6.17,4,21.28,21.28,0,0,0-5.62,13.56l.69,5.1a19.27,19.27,0,0,0,4.93,8.47l3.88,3a19,19,0,0,0,9.68,2.62,14.46,14.46,0,0,0,7.39-1.65,14.29,14.29,0,0,0,6.17-4,21.28,21.28,0,0,0,5.62-13.56Z" transform="translate(-224.56 -255.57)"/></g><g id="Text"><g class="cls-2"><g class="cls-2"><path class="cls-1" d="M369.29,906.89l-13.86-13.35-36.81,38.21L311,924.37l36.82-38.21L334,872.93l6-6.23,35.25,34Z" transform="translate(-224.56 -255.57)"/></g><g class="cls-2"><path class="cls-1" d="M347.41,955.32l-8.26-6.15,27.39-36.79,8.26,6.15Zm25.73-52.87a5.52,5.52,0,0,1,3.56-2.27,5.68,5.68,0,0,1,4.39,1.32,5.75,5.75,0,0,1,2.53,3.84,5.41,5.41,0,0,1-1.13,4.07,5.33,5.33,0,0,1-3.54,2.2,6.79,6.79,0,0,1-6.92-5.15A5.32,5.32,0,0,1,373.14,902.45Z" transform="translate(-224.56 -255.57)"/></g><g class="cls-2"><path class="cls-1" d="M373.45,973Q365,968,362.8,959.66t3-17.26l.63-1.1a27.6,27.6,0,0,1,8.44-9.29,20.17,20.17,0,0,1,10.66-3.55,19.64,19.64,0,0,1,10.75,2.75q8.1,4.68,9.53,12.42t-4.06,17.19l-2.08,3.6-25.93-15a13.8,13.8,0,0,0-1.22,9.68,11.43,11.43,0,0,0,5.59,7.06,14,14,0,0,0,12.84.82l2.15,7.37a18.53,18.53,0,0,1-9.56,1.83A23,23,0,0,1,373.45,973Zm18.62-34.61a8.67,8.67,0,0,0-7.41-.87,15.3,15.3,0,0,0-7,5.49l17,9.83.38-.66c1.53-3.1,2.05-5.81,1.54-8.15A8.61,8.61,0,0,0,392.07,938.34Z" transform="translate(-224.56 -255.57)"/></g><g class="cls-2"><path class="cls-1" d="M422.88,945.64l-1.68,5a16.5,16.5,0,0,1,14.68-.8q13.32,5.26,7.52,20.61l-11.14,28.18-9.58-3.79,10.93-27.62q1.61-4.07.62-6.71c-.65-1.76-2.31-3.17-5-4.22a9.92,9.92,0,0,0-10.71,1.83l-12,30.35L397,984.72l16.87-42.65Z" transform="translate(-224.56 -255.57)"/></g><g class="cls-2"><path class="cls-1" d="M446.07,978.78q2.56-10.28,8.89-15.32a15.78,15.78,0,0,1,14.35-3,15,15,0,0,1,10.2,7.78l5.68-22.78,10,2.49-15.75,63.17-9.05-2.26.66-4.72a15.2,15.2,0,0,1-13.32,2.44,15.66,15.66,0,0,1-11.08-9.45Q443.37,989.61,446.07,978.78Zm9.78,3.36q-1.69,6.78,0,11.24A8.73,8.73,0,0,0,462.3,999a9.74,9.74,0,0,0,10.33-3.23l4.73-19a9.57,9.57,0,0,0-7.55-7.56,8.77,8.77,0,0,0-8.44,2Q457.79,974.4,455.85,982.14Z" transform="translate(-224.56 -255.57)"/></g><g class="cls-2"><path class="cls-1" d="M517.18,1016.72a15.66,15.66,0,0,1-.59-4.41,16,16,0,0,1-12.63,3.45,16.2,16.2,0,0,1-10.63-5.44,12.66,12.66,0,0,1-3-10.25q1-7.27,6.93-10.41t16-1.77l6.26.86.41-3a8.06,8.06,0,0,0-1.2-5.92q-1.68-2.39-5.71-2.94a9.05,9.05,0,0,0-6,1A5.41,5.41,0,0,0,504.2,982L494,980.59a11.41,11.41,0,0,1,3.44-6.65,16.68,16.68,0,0,1,7.44-4.18,23.91,23.91,0,0,1,9.76-.54q8,1.1,12.18,5.76t3.32,11.94l-2.82,20.49a23.5,23.5,0,0,0,.38,10l-.1.72Zm-10.2-8.89a11.74,11.74,0,0,0,5.89-.69,9.93,9.93,0,0,0,4.55-3.4l1.18-8.56-5.5-.76q-5.67-.78-8.8.81a6.44,6.44,0,0,0-3.62,5.19,6,6,0,0,0,1.31,5A7.64,7.64,0,0,0,507,1007.83Z" transform="translate(-224.56 -255.57)"/></g><g class="cls-2"><path class="cls-1" d="M556.76,996.94Q557,986.34,562,980a15.77,15.77,0,0,1,13.31-6.15A15,15,0,0,1,587,979.2l.48-23.48,10.29.21L596.46,1021l-9.32-.19-.42-4.76a15.14,15.14,0,0,1-12.44,5.34,15.63,15.63,0,0,1-12.9-6.74Q556.54,1008.09,556.76,996.94ZM567,998q-.13,7,2.47,11a8.74,8.74,0,0,0,7.57,4.08,9.73,9.73,0,0,0,9.35-5.45l.4-19.58a9.57,9.57,0,0,0-9-5.69,8.78,8.78,0,0,0-7.79,3.8C568.13,988.77,567.15,992.72,567,998Z" transform="translate(-224.56 -255.57)"/></g><g class="cls-2"><path class="cls-1" d="M627.43,1021.1q-9.79.33-16.07-5.63t-6.63-16.22l0-1.27a27.49,27.49,0,0,1,2.23-12.35,20.23,20.23,0,0,1,7.16-8.66,19.63,19.63,0,0,1,10.57-3.36q9.36-.32,14.67,5.49T645,995.83l.13,4.15-30,1a13.8,13.8,0,0,0,4.1,8.86,11.37,11.37,0,0,0,8.47,3,13.93,13.93,0,0,0,11.33-6.1l5.73,5.11a18.53,18.53,0,0,1-7.14,6.62A23.06,23.06,0,0,1,627.43,1021.1Zm-2.55-39.23a8.7,8.7,0,0,0-6.74,3.19,15.4,15.4,0,0,0-3,8.38l19.62-.66,0-.76c-.34-3.44-1.35-6-3-7.72A8.61,8.61,0,0,0,624.88,981.87Z" transform="translate(-224.56 -255.57)"/></g><g class="cls-2"><path class="cls-1" d="M676.29,1016.81,666,956l18-3a28.59,28.59,0,0,1,14.92,1.17,24.89,24.89,0,0,1,11.41,8.55,33,33,0,0,1,6,14.55l.51,3a32.65,32.65,0,0,1-.87,15.8,24.5,24.5,0,0,1-8.1,11.77,29.92,29.92,0,0,1-14,6ZM678,962.7l7.44,43.88,6.89-1.17q8.32-1.41,11.89-7.37t2-15.71l-.58-3.38q-1.67-9.9-6.86-14.4t-13.38-3.11Z" transform="translate(-224.56 -255.57)"/></g><g class="cls-2"><path class="cls-1" d="M716.62,950.43a5.48,5.48,0,0,1,.47-4.19,6.73,6.73,0,0,1,8.36-2.15,5.46,5.46,0,0,1,2.46,3.43,5.28,5.28,0,0,1-.51,4.14,5.85,5.85,0,0,1-3.8,2.58,5.73,5.73,0,0,1-4.55-.43A5.34,5.34,0,0,1,716.62,950.43Zm25,53.22-10,2.57-11.44-44.41,10-2.57Z" transform="translate(-224.56 -255.57)"/></g><g class="cls-2"><path class="cls-1" d="M772.76,980.75a4.66,4.66,0,0,0-3.51-3.23,24.14,24.14,0,0,0-7.94,0,38.23,38.23,0,0,1-9.21.21q-8.51-1-10.81-7.71a12.18,12.18,0,0,1,1.5-11q3.44-5.4,10.73-7.91,7.77-2.67,13.89-.48a12.94,12.94,0,0,1,8.22,8.34l-9.74,3.35a6.32,6.32,0,0,0-3.69-4,8.41,8.41,0,0,0-6.17,0,9.11,9.11,0,0,0-4.72,3.29,4.94,4.94,0,0,0-.66,4.66,4.16,4.16,0,0,0,3.08,2.84c1.55.4,4.37.36,8.48-.12a38.37,38.37,0,0,1,10-.09,13.58,13.58,0,0,1,6.29,2.52,11.28,11.28,0,0,1,3.63,5.39,12,12,0,0,1-1.59,11.15q-3.6,5.29-11.45,8A23.72,23.72,0,0,1,759,997.42a16.38,16.38,0,0,1-8.32-3.06,13.23,13.23,0,0,1-4.82-6.45l9.46-3.25a7.24,7.24,0,0,0,4.43,4.41,10.7,10.7,0,0,0,7-.33,10.41,10.41,0,0,0,5.35-3.47A4.81,4.81,0,0,0,772.76,980.75Z" transform="translate(-224.56 -255.57)"/></g><g class="cls-2"><path class="cls-1" d="M808.46,970.94a9.33,9.33,0,0,0,4.78-4.81,7.68,7.68,0,0,0,0-6.18l8.74-4.23a15.1,15.1,0,0,1,1.07,8.36,17.49,17.49,0,0,1-3.54,8.24,20.14,20.14,0,0,1-7.38,6q-8.65,4.2-16.45,1t-12.57-13l-.46-.95q-4.56-9.42-2.26-17.53t11-12.31q7.36-3.56,14.08-1.51a17.12,17.12,0,0,1,10.32,8.92l-8.74,4.23a9.47,9.47,0,0,0-5.25-4.67,8.67,8.67,0,0,0-6.88.51,9,9,0,0,0-5.37,6.62q-.87,4.45,2.31,11.1l.72,1.49q3.24,6.72,7.27,8.84A9.07,9.07,0,0,0,808.46,970.94Z" transform="translate(-224.56 -255.57)"/></g><g class="cls-2"><path class="cls-1" d="M820.81,947.15a26.93,26.93,0,0,1-4.53-11.58,19.44,19.44,0,0,1,1.61-11.07,21.08,21.08,0,0,1,7.62-8.59q7.71-5.16,15.84-3.42t14,9.7l1.38,2a27.2,27.2,0,0,1,4.58,11.52,19.29,19.29,0,0,1-1.61,11,21.25,21.25,0,0,1-7.68,8.66q-8.07,5.4-16.51,3.27T821.1,947.57Zm9.06-5q3.93,5.88,8.59,7.59a9.53,9.53,0,0,0,9-1.2,9.42,9.42,0,0,0,4.48-7.9q.17-5-4.21-11.51-3.86-5.77-8.61-7.5a10.08,10.08,0,0,0-13.44,8.92Q825.43,935.54,829.87,942.16Z" transform="translate(-224.56 -255.57)"/></g><g class="cls-2"><path class="cls-1" d="M886.58,910.73a4.71,4.71,0,0,0-4.5-1.58,24.3,24.3,0,0,0-7.28,3.18,38.45,38.45,0,0,1-8.37,3.83q-8.22,2.43-13-2.81a12.2,12.2,0,0,1-3-10.7q1-6.31,6.73-11.5,6.09-5.53,12.57-5.93a12.91,12.91,0,0,1,10.84,4.41L873,896.55a6.37,6.37,0,0,0-5-2.17,8.44,8.44,0,0,0-5.65,2.48,9.08,9.08,0,0,0-3,4.88,4.94,4.94,0,0,0,1.24,4.54,4.16,4.16,0,0,0,3.95,1.39q2.36-.36,7.74-3.45a38.17,38.17,0,0,1,9.18-4.05,13.43,13.43,0,0,1,6.78-.17,11.23,11.23,0,0,1,5.45,3.51,12,12,0,0,1,2.95,10.87q-1.21,6.29-7.36,11.88a24,24,0,0,1-8.8,5.25,16.52,16.52,0,0,1-8.85.47,13.22,13.22,0,0,1-7-4l7.41-6.73a7.24,7.24,0,0,0,5.81,2.31,10.73,10.73,0,0,0,6.31-3.08,10.37,10.37,0,0,0,3.54-5.3A4.81,4.81,0,0,0,886.58,910.73Z" transform="translate(-224.56 -255.57)"/></g></g></g></svg>