<svg width="59" height="65" viewBox="0 0 59 65" fill="none" xmlns="http://www.w3.org/2000/svg">
<path d="M47 41C46.2044 41 45.4413 40.7098 44.8787 40.1933C44.3161 39.6767 44 38.9761 44 38.2456V26.7544C44 26.0239 44.3161 25.3233 44.8787 24.8067C45.4413 24.2902 46.2044 24 47 24V24C47.7956 24 48.5587 24.2902 49.1213 24.8067C49.6839 25.3233 50 26.0239 50 26.7544V38.2456C50 38.9761 49.6839 39.6767 49.1213 40.1933C48.5587 40.7098 47.7956 41 47 41V41Z" fill="white"/>
<path d="M14.5016 46C15.1642 46 15.7997 45.7089 16.2682 45.1907C16.7368 44.6726 17 43.9698 17 43.237V21.763C17 21.0302 16.7368 20.3274 16.2682 19.8093C15.7997 19.2911 15.1642 19 14.5016 19V19C13.8387 19 13.2029 19.291 12.7338 19.809C12.2648 20.3271 12.0008 21.0298 12 21.763V43.237C12.0008 43.9701 12.2648 44.6729 12.7338 45.191C13.2029 45.709 13.8387 46 14.5016 46Z" fill="white"/>
<path d="M0 35.3513C0 36.8141 1.34315 38 3 38C4.65685 38 6 36.8141 6 35.3513L6 29.6487C6 28.1859 4.65685 27 3 27C1.34315 27 0 28.1859 0 29.6487L0 35.3513Z" fill="white"/>
<path d="M35.7237 9.41662H34.8855C34.2824 9.41755 33.7043 9.66549 33.2782 10.106C32.852 10.5465 32.6127 11.1436 32.6127 11.7661V16.2681C32.6118 16.8462 32.3889 17.4003 31.9929 17.8091C31.5969 18.2178 31.0601 18.4479 30.5 18.4488V18.4488C29.94 18.4479 29.4032 18.2178 29.0072 17.8091C28.6112 17.4003 28.3883 16.8462 28.3874 16.2681V2.84297C28.395 2.10979 28.125 1.4025 27.635 0.871706C27.1449 0.340908 26.4735 0.0285331 25.7636 0.00107924C25.404 -0.00927513 25.0461 0.0549641 24.711 0.190002C24.3758 0.32504 24.0704 0.528131 23.8127 0.787233C23.555 1.04633 23.3503 1.35618 23.2107 1.69842C23.0712 2.04066 22.9996 2.40834 23.0002 2.77966V62.157C22.9925 62.8896 23.262 63.5964 23.7514 64.1271C24.2407 64.6578 24.9113 64.9706 25.6205 64.9989C25.9803 65.0093 26.3384 64.945 26.6737 64.81C27.009 64.675 27.3147 64.472 27.5726 64.213C27.8306 63.9539 28.0356 63.6441 28.1756 63.3018C28.3155 62.9596 28.3875 62.5918 28.3874 62.2203V48.7319C28.3883 48.1538 28.6112 47.5997 29.0072 47.1909C29.4032 46.7822 29.94 46.5521 30.5 46.5512C31.0601 46.5521 31.5969 46.7822 31.9929 47.1909C32.3889 47.5997 32.6118 48.1538 32.6127 48.7319V53.2515C32.6127 53.874 32.852 54.4711 33.2782 54.9116C33.7043 55.3521 34.2824 55.6 34.8855 55.601H35.7237C36.0226 55.601 36.3186 55.5402 36.5948 55.4221C36.871 55.304 37.1219 55.131 37.3333 54.9128C37.5446 54.6946 37.7123 54.4356 37.8267 54.1506C37.9411 53.8655 37.9999 53.56 37.9999 53.2515V11.7837C38.0022 11.4737 37.945 11.1663 37.8316 10.8792C37.7182 10.5921 37.5509 10.331 37.3393 10.111C37.1277 9.89094 36.876 9.71631 36.5987 9.59714C36.3215 9.47797 36.0241 9.41661 35.7237 9.41662ZM32.9296 39.8545C32.9296 40.3656 32.7329 40.8559 32.3827 41.2174C32.0325 41.5788 31.5575 41.7819 31.0623 41.7819V41.7819C30.567 41.7819 30.0921 41.5788 29.7419 41.2174C29.3917 40.8559 29.195 40.3656 29.195 39.8545V24.4667C29.195 23.9555 29.3917 23.4653 29.7419 23.1038C30.0921 22.7424 30.567 22.5393 31.0623 22.5393V22.5393C31.5575 22.5393 32.0325 22.7424 32.3827 23.1038C32.7329 23.4653 32.9296 23.9555 32.9296 24.4667V39.8545Z" fill="white"/>
<path d="M59 32.5C59 33.163 58.7366 33.7989 58.2678 34.2678C57.7989 34.7366 57.163 35 56.5 35C55.837 35 55.2011 34.7366 54.7322 34.2678C54.2634 33.7989 54 33.163 54 32.5C54 31.837 54.2634 31.2011 54.7322 30.7322C55.2011 30.2634 55.837 30 56.5 30C57.163 30 57.7989 30.2634 58.2678 30.7322C58.7366 31.2011 59 31.837 59 32.5Z" fill="white"/>
</svg>
