<svg width="166" height="24" viewBox="0 0 166 24" fill="none" xmlns="http://www.w3.org/2000/svg">
<path d="M8.58063 23C8.26063 23 8.00463 22.9253 7.81263 22.776C7.64196 22.6267 7.50329 22.424 7.39663 22.168L0.260625 1.592C0.217958 1.464 0.196625 1.34667 0.196625 1.24C0.196625 1.06933 0.260625 0.919999 0.388625 0.792C0.516625 0.663999 0.665958 0.599998 0.836625 0.599998H2.50063C2.75663 0.599998 2.94863 0.674665 3.07663 0.823999C3.22596 0.951999 3.31129 1.06933 3.33263 1.176L9.60463 19.32L15.8766 1.176C15.9193 1.06933 16.0046 0.951999 16.1326 0.823999C16.2606 0.674665 16.4526 0.599998 16.7086 0.599998H18.3726C18.5433 0.599998 18.6926 0.663999 18.8206 0.792C18.97 0.919999 19.0446 1.06933 19.0446 1.24C19.0446 1.34667 19.0233 1.464 18.9806 1.592L11.8126 22.168C11.7273 22.424 11.5886 22.6267 11.3966 22.776C11.226 22.9253 10.9806 23 10.6606 23H8.58063ZM19.7956 23C19.625 23 19.4756 22.936 19.3476 22.808C19.2196 22.68 19.1556 22.5307 19.1556 22.36C19.1556 22.2533 19.1663 22.136 19.1876 22.008L27.1236 1.304C27.209 1.09067 27.3263 0.919999 27.4756 0.792C27.625 0.663999 27.849 0.599998 28.1476 0.599998H30.3236C30.601 0.599998 30.8143 0.663999 30.9636 0.792C31.1343 0.919999 31.2623 1.09067 31.3476 1.304L39.2516 22.008C39.2943 22.136 39.3156 22.2533 39.3156 22.36C39.3156 22.5307 39.2516 22.68 39.1236 22.808C38.9956 22.936 38.8463 23 38.6756 23H37.0436C36.7876 23 36.5956 22.936 36.4676 22.808C36.361 22.68 36.2863 22.5627 36.2436 22.456L34.4836 17.912H23.9876L22.2276 22.456C22.2063 22.5627 22.1316 22.68 22.0036 22.808C21.8756 22.936 21.6836 23 21.4276 23H19.7956ZM24.9156 15.16H33.5556L29.2356 3.8L24.9156 15.16ZM50.3629 23.32C48.5495 23.32 46.9922 23.0107 45.6909 22.392C44.3895 21.752 43.3869 20.7813 42.6829 19.48C41.9789 18.1573 41.5842 16.504 41.4989 14.52C41.4775 13.5813 41.4669 12.6853 41.4669 11.832C41.4669 10.9573 41.4775 10.0507 41.4989 9.112C41.5842 7.14933 41.9895 5.51733 42.7149 4.216C43.4615 2.89333 44.4855 1.912 45.7869 1.272C47.1095 0.610666 48.6349 0.279999 50.3629 0.279999C52.1122 0.279999 53.6375 0.610666 54.9389 1.272C56.2615 1.912 57.2962 2.89333 58.0429 4.216C58.7895 5.51733 59.1949 7.14933 59.2589 9.112C59.3015 10.0507 59.3229 10.9573 59.3229 11.832C59.3229 12.6853 59.3015 13.5813 59.2589 14.52C59.1949 16.504 58.8002 18.1573 58.0749 19.48C57.3709 20.7813 56.3682 21.752 55.0669 22.392C53.7655 23.0107 52.1975 23.32 50.3629 23.32ZM50.3629 20.6C52.0055 20.6 53.3389 20.1093 54.3629 19.128C55.4082 18.1467 55.9735 16.5573 56.0589 14.36C56.1015 13.4 56.1229 12.5467 56.1229 11.8C56.1229 11.032 56.1015 10.1787 56.0589 9.24C56.0162 7.768 55.7389 6.57333 55.2269 5.656C54.7362 4.73867 54.0749 4.06667 53.2429 3.64C52.4109 3.21333 51.4509 3 50.3629 3C49.3175 3 48.3789 3.21333 47.5469 3.64C46.7149 4.06667 46.0429 4.73867 45.5309 5.656C45.0402 6.57333 44.7629 7.768 44.6989 9.24C44.6775 10.1787 44.6669 11.032 44.6669 11.8C44.6669 12.5467 44.6775 13.4 44.6989 14.36C44.7842 16.5573 45.3495 18.1467 46.3949 19.128C47.4402 20.1093 48.7629 20.6 50.3629 20.6ZM72.5669 23C72.3535 23 72.1722 22.936 72.0229 22.808C71.8949 22.6587 71.8309 22.4773 71.8309 22.264V1.368C71.8309 1.13333 71.8949 0.951999 72.0229 0.823999C72.1722 0.674665 72.3535 0.599998 72.5669 0.599998H74.1669C74.4229 0.599998 74.6149 0.663999 74.7429 0.792C74.8709 0.919999 74.9455 1.02667 74.9669 1.112L81.7509 14.04L88.5669 1.112C88.6095 1.02667 88.6842 0.919999 88.7909 0.792C88.9189 0.663999 89.1109 0.599998 89.3669 0.599998H90.9349C91.1695 0.599998 91.3509 0.674665 91.4789 0.823999C91.6282 0.951999 91.7029 1.13333 91.7029 1.368V22.264C91.7029 22.4773 91.6282 22.6587 91.4789 22.808C91.3509 22.936 91.1695 23 90.9349 23H89.3669C89.1535 23 88.9722 22.936 88.8229 22.808C88.6949 22.6587 88.6309 22.4773 88.6309 22.264V6.52L83.2869 16.952C83.2015 17.1653 83.0735 17.336 82.9029 17.464C82.7322 17.5707 82.5189 17.624 82.2629 17.624H81.2709C80.9935 17.624 80.7695 17.5707 80.5989 17.464C80.4495 17.336 80.3215 17.1653 80.2149 16.952L74.8709 6.52V22.264C74.8709 22.4773 74.7962 22.6587 74.6469 22.808C74.5189 22.936 74.3482 23 74.1349 23H72.5669ZM105.685 23.32C103.893 23.32 102.346 23 101.045 22.36C99.7651 21.72 98.7731 20.7493 98.0691 19.448C97.3865 18.1253 97.0451 16.4293 97.0451 14.36V1.368C97.0451 1.13333 97.1091 0.951999 97.2371 0.823999C97.3651 0.674665 97.5465 0.599998 97.7811 0.599998H99.4131C99.6478 0.599998 99.8291 0.674665 99.9571 0.823999C100.106 0.951999 100.181 1.13333 100.181 1.368V14.424C100.181 16.5147 100.672 18.0613 101.653 19.064C102.634 20.0667 103.978 20.568 105.685 20.568C107.37 20.568 108.704 20.0667 109.685 19.064C110.688 18.0613 111.189 16.5147 111.189 14.424V1.368C111.189 1.13333 111.253 0.951999 111.381 0.823999C111.53 0.674665 111.712 0.599998 111.925 0.599998H113.589C113.802 0.599998 113.973 0.674665 114.101 0.823999C114.25 0.951999 114.325 1.13333 114.325 1.368V14.36C114.325 16.4293 113.973 18.1253 113.269 19.448C112.586 20.7493 111.605 21.72 110.325 22.36C109.045 23 107.498 23.32 105.685 23.32ZM126.875 23.32C125.019 23.32 123.461 23.0427 122.203 22.488C120.944 21.912 119.973 21.176 119.291 20.28C118.629 19.3627 118.277 18.392 118.235 17.368C118.235 17.1973 118.299 17.048 118.427 16.92C118.576 16.7707 118.747 16.696 118.939 16.696H120.571C120.827 16.696 121.019 16.76 121.147 16.888C121.275 17.016 121.36 17.1653 121.403 17.336C121.509 17.848 121.765 18.36 122.171 18.872C122.597 19.3627 123.184 19.7787 123.931 20.12C124.699 20.44 125.68 20.6 126.875 20.6C128.709 20.6 130.053 20.28 130.907 19.64C131.781 18.9787 132.219 18.104 132.219 17.016C132.219 16.2693 131.984 15.672 131.515 15.224C131.067 14.7547 130.373 14.3387 129.435 13.976C128.496 13.6133 127.28 13.2187 125.787 12.792C124.229 12.344 122.939 11.8533 121.915 11.32C120.891 10.7867 120.123 10.1253 119.611 9.336C119.12 8.54667 118.875 7.544 118.875 6.328C118.875 5.176 119.184 4.152 119.803 3.256C120.421 2.33867 121.307 1.61333 122.459 1.08C123.632 0.546665 125.051 0.279999 126.715 0.279999C128.037 0.279999 129.189 0.461332 130.171 0.823999C131.173 1.16533 132.005 1.63467 132.667 2.232C133.328 2.808 133.829 3.43733 134.171 4.12C134.512 4.78133 134.693 5.432 134.715 6.072C134.715 6.22133 134.661 6.37067 134.555 6.52C134.448 6.648 134.277 6.712 134.043 6.712H132.347C132.197 6.712 132.037 6.66933 131.867 6.584C131.717 6.49867 131.6 6.33867 131.515 6.104C131.387 5.22933 130.896 4.49333 130.043 3.896C129.189 3.29867 128.08 3 126.715 3C125.328 3 124.197 3.26667 123.323 3.8C122.469 4.33333 122.043 5.16533 122.043 6.296C122.043 7.02133 122.245 7.62933 122.651 8.12C123.056 8.58933 123.696 9.00533 124.571 9.368C125.445 9.73067 126.587 10.1147 127.995 10.52C129.701 10.9893 131.099 11.4907 132.187 12.024C133.275 12.536 134.075 13.1867 134.587 13.976C135.12 14.744 135.387 15.736 135.387 16.952C135.387 18.296 135.035 19.448 134.331 20.408C133.627 21.3467 132.635 22.072 131.355 22.584C130.096 23.0747 128.603 23.32 126.875 23.32ZM140.317 23C140.082 23 139.901 22.936 139.773 22.808C139.645 22.6587 139.581 22.4773 139.581 22.264V1.336C139.581 1.12267 139.645 0.951999 139.773 0.823999C139.901 0.674665 140.082 0.599998 140.317 0.599998H142.013C142.226 0.599998 142.397 0.674665 142.525 0.823999C142.674 0.951999 142.749 1.12267 142.749 1.336V22.264C142.749 22.4773 142.674 22.6587 142.525 22.808C142.397 22.936 142.226 23 142.013 23H140.317ZM156.395 23.32C154.432 23.32 152.8 22.9573 151.499 22.232C150.219 21.5067 149.248 20.4933 148.587 19.192C147.926 17.8907 147.563 16.376 147.499 14.648C147.478 13.7733 147.467 12.8347 147.467 11.832C147.467 10.8293 147.478 9.86933 147.499 8.952C147.563 7.224 147.926 5.70933 148.587 4.408C149.248 3.10667 150.219 2.09333 151.499 1.368C152.8 0.642665 154.432 0.279999 156.395 0.279999C157.867 0.279999 159.158 0.482665 160.267 0.887999C161.376 1.29333 162.294 1.83733 163.019 2.52C163.766 3.20267 164.331 3.97067 164.715 4.824C165.099 5.656 165.312 6.52 165.355 7.416C165.376 7.608 165.312 7.768 165.163 7.896C165.035 8.024 164.875 8.088 164.683 8.088H162.923C162.731 8.088 162.56 8.03467 162.411 7.928C162.283 7.82133 162.187 7.62933 162.123 7.352C161.76 5.688 161.078 4.54667 160.075 3.928C159.094 3.30933 157.856 3 156.363 3C154.656 3 153.302 3.49067 152.299 4.472C151.296 5.432 150.752 6.97867 150.667 9.112C150.603 10.8613 150.603 12.6533 150.667 14.488C150.752 16.6213 151.296 18.1787 152.299 19.16C153.302 20.12 154.656 20.6 156.363 20.6C157.856 20.6 159.094 20.2907 160.075 19.672C161.078 19.0533 161.76 17.912 162.123 16.248C162.187 15.9707 162.283 15.7787 162.411 15.672C162.56 15.5653 162.731 15.512 162.923 15.512H164.683C164.875 15.512 165.035 15.576 165.163 15.704C165.312 15.832 165.376 15.992 165.355 16.184C165.312 17.08 165.099 17.9547 164.715 18.808C164.331 19.64 163.766 20.3973 163.019 21.08C162.294 21.7627 161.376 22.3067 160.267 22.712C159.158 23.1173 157.867 23.32 156.395 23.32Z" fill="white"/>
</svg>
